<svg xmlns="http://www.w3.org/2000/svg" viewBox="0 0 64 64">
  <defs>
    <linearGradient id="bg" x1="0%" y1="0%" x2="100%" y2="100%">
      <stop offset="0%" stop-color="#0f4cdb" />
      <stop offset="100%" stop-color="#1e88ff" />
    </linearGradient>
  </defs>
  <rect width="64" height="64" rx="14" fill="url(#bg)" />
  <path d="M24 8h16v6H24z" fill="#b8dbff" />
  <path d="M20 14h24a6 6 0 0 1 6 6v30a6 6 0 0 1-6 6H20a6 6 0 0 1-6-6V20a6 6 0 0 1 6-6Z" fill="#f4f9ff" />
  <path d="M28 24h8l-4 10h7L28 50l3-11h-7l4-15Z" fill="#0f4cdb" />
  <circle cx="22" cy="44" r="2.2" fill="#75b5ff" />
  <circle cx="42" cy="44" r="2.2" fill="#75b5ff" />
</svg>
